<?xml version="1.0" encoding="UTF-8"?>
<svg xmlns="http://www.w3.org/2000/svg" style="display:none">
  <!-- Brand / Logo -->
  <symbol id="icon-brand" viewBox="0 0 24 24">
    <path d="M12 2L2 7V17L12 22L22 17V7L12 2Z" stroke="currentColor" stroke-width="2" stroke-linecap="round" stroke-linejoin="round" fill="none"/>
    <path d="M2 7L12 12" stroke="currentColor" stroke-width="2" stroke-linecap="round" stroke-linejoin="round" fill="none"/>
    <path d="M22 7L12 12" stroke="currentColor" stroke-width="2" stroke-linecap="round" stroke-linejoin="round" fill="none"/>
    <path d="M12 22V12" stroke="currentColor" stroke-width="2" stroke-linecap="round" stroke-linejoin="round" fill="none"/>
  </symbol>

  <!-- Menu Icon -->
  <symbol id="icon-menu" viewBox="0 0 24 24">
    <path d="M3 12h18M3 6h18M3 18h18" stroke="currentColor" stroke-width="2" stroke-linecap="round" stroke-linejoin="round" fill="none"/>
  </symbol>

  <!-- Login / Reports Icon -->
  <symbol id="icon-login" viewBox="0 0 24 24">
    <path stroke-linecap="round" stroke-linejoin="round" d="M9 19v-6a2 2 0 00-2-2H5a2 2 0 00-2 2v6a2 2 0 002 2h2a2 2 0 002-2z" stroke="currentColor" stroke-width="2" fill="none"/>
    <path stroke-linecap="round" stroke-linejoin="round" d="M9 9V9a2 2 0 012-2h2a2 2 0 012 2v10" stroke="currentColor" stroke-width="2" fill="none"/>
    <path stroke-linecap="round" stroke-linejoin="round" d="M14 14a2 2 0 002 2h2a2 2 0 002-2" stroke="currentColor" stroke-width="2" fill="none"/>
    <path stroke-linecap="round" stroke-linejoin="round" d="M20 5v14" stroke="currentColor" stroke-width="2" fill="none"/>
  </symbol>

  <!-- Service icons (simple variants) -->
  <symbol id="icon-service-box" viewBox="0 0 24 24">
    <rect x="3" y="3" width="18" height="18" rx="2" ry="2" stroke="currentColor" stroke-width="2" fill="none" />
  </symbol>

  <symbol id="icon-service-chain" viewBox="0 0 24 24">
    <path d="M10 13a5 5 0 0 0 7.54.54l3-3a5 5 0 0 0-7.54-.54" stroke="currentColor" stroke-width="2" stroke-linecap="round" stroke-linejoin="round" fill="none"/>
  </symbol>

  <symbol id="icon-service-process" viewBox="0 0 24 24">
    <polyline points="22 12 18 12 15 21 9 3 6 12 2 12" stroke="currentColor" stroke-width="2" stroke-linecap="round" stroke-linejoin="round" fill="none"/>
  </symbol>

  <symbol id="icon-service-file" viewBox="0 0 24 24">
    <path d="M14 2H6a2 2 0 0 0-2 2v16a2 2 0 0 0 2 2h12a2 2 0 0 0 2-2V8l-6-6z" stroke="currentColor" stroke-width="2" stroke-linecap="round" stroke-linejoin="round" fill="none"/>
  </symbol>

  <!-- Check / success icon for service list -->
  <symbol id="icon-check" viewBox="0 0 24 24">
    <path d="M9 12.75L11.25 15 15 9.75" stroke="currentColor" stroke-width="2" stroke-linecap="round" stroke-linejoin="round" fill="none"/>
    <path d="M21 12a9 9 0 11-18 0 9 9 0 0118 0z" stroke="currentColor" stroke-width="2" stroke-linecap="round" stroke-linejoin="round" fill="none"/>
  </symbol>

  <!-- Social Icons (filled variants) -->
  <symbol id="icon-github" viewBox="0 0 24 24">
    <!-- Octocat solid fill - uses currentColor -->
    <path fill="currentColor" d="M12 .5C5.65 .5 .5 5.65 .5 12c0 5.08 3.29 9.38 7.86 10.9.58.11.79-.25.79-.56 0-.27-.01-1.14-.02-2.07-3.19.71-3.86-1.41-3.86-1.41-.52-1.32-1.27-1.67-1.27-1.67-1.04-.71.08-.7.08-.7 1.15.08 1.75 1.19 1.75 1.19 1.02 1.75 2.66 1.25 3.31.95.1-.74.4-1.25.72-1.54-2.55-.29-5.24-1.28-5.24-5.69 0-1.26.45-2.3 1.19-3.11-.12-.29-.52-1.47.11-3.07 0 0 .97-.31 3.19 1.18.93-.26 1.94-.39 2.94-.39 1 0 2.01.13 2.94.39 2.22-1.49 3.19-1.18 3.19-1.18.63 1.6.23 2.78.11 3.07.74.81 1.19 1.85 1.19 3.11 0 4.41-2.69 5.39-5.25 5.68.41.36.78 1.08.78 2.18 0 1.57-.01 2.84-.01 3.22 0 .31.21.68.8.56C20.71 21.38 24 17.07 24 12c0-6.35-5.15-11.5-12-11.5z"/>
  </symbol>

  <symbol id="icon-linkedin" viewBox="0 0 24 24">
    <!-- LinkedIn "in" solid fill - uses currentColor -->
    <path fill="currentColor" d="M19 0H5C3.35 0 2 1.35 2 3v18c0 1.65 1.35 3 3 3h14c1.65 0 3-1.35 3-3V3c0-1.65-1.35-3-3-3zM8.34 19H5.34V9.66h3V19zM6.84 8.38c-1.02 0-1.84-.83-1.84-1.85 0-1.02.83-1.85 1.84-1.85 1.02 0 1.85.83 1.85 1.85s-.83 1.85-1.85 1.85zM20 19h-3v-5.2c0-1.24-.02-2.82-1.72-2.82-1.73 0-1.99 1.35-1.99 2.74V19h-3V9.66h2.88v1.29h.04c.4-.76 1.38-1.56 2.84-1.56 3.04 0 3.6 2 3.6 4.61V19z"/>
  </symbol>
</svg>
